<?xml version="1.0" encoding="utf-8"?>
<!-- Generator: Adobe Illustrator 22.1.0, SVG Export Plug-In . SVG Version: 6.00 Build 0)  -->
<svg version="1.1" id="Layer_1" xmlns="http://www.w3.org/2000/svg" xmlns:xlink="http://www.w3.org/1999/xlink" x="0px" y="0px"
	 width="831.9px" height="231.9px" viewBox="0 0 831.9 231.9" style="enable-background:new 0 0 831.9 231.9;" xml:space="preserve"
	>
<style type="text/css">
	.st0{fill:#6D8839;}
	.st1{fill:#7A9C3E;}
</style>
<g>
	<path class="st0" d="M177.6,156.6c10.7-17.4,16.1-37.4,16.1-57.4H38.8c0,2.5,0.8,5,2.3,7c12.5,16.3,28.1,39.2,35.1,49.7
		c2.4,3.5,6.2,5.6,10.2,5.6c15.7,0,56.7,0,82.7,0C172.5,161.5,175.7,159.6,177.6,156.6z"/>
	<path class="st1" d="M177.6,41.8c-1.9-3.1-5.1-4.9-8.5-4.9c-26,0-66.9,0-82.7,0c-4,0-7.8,2.1-10.2,5.6c-7,10.4-22.5,33.3-35.1,49.6
		c-1.6,2.1-2.4,4.5-2.4,7h154.9C193.7,79.2,188.3,59.2,177.6,41.8z"/>
	<rect x="191" y="82.1" class="st0" width="3.6" height="32.8"/>
	<path class="st0" d="M262.3,102.4l4.2-2.8h-51.8c-0.5,1.9-2.2,3.3-4.3,3.3c-2.4,0-4.4-2-4.4-4.4s2-4.4,4.4-4.4c2,0,3.7,1.4,4.2,3.3
		h51.8l-4.4-3.3L234,75.4l-36,6.1l-0.2,32.9l35.8,8.6L262.3,102.4z"/>
	<g>
		<path class="st0" d="M295.1,92.2c0.7-2.6,1.8-5.7,3.4-9.4c1.6-3.7,3.5-7.1,5.8-10.2c2.3-3.1,4.8-4.9,7.5-5.6
			c2.7-0.6,5.6,0.8,8.6,4.3c1.4,1.8,2.3,4.4,2.6,7.7c0.3,3.3,0.1,7.1-0.4,11.3c5.7-0.2,10.5-0.2,14.2-0.1c3.7,0.1,5.7,0.4,5.9,0.8
			c0.8,2.5,0.2,4.5-1.8,5.9c-2,1.4-4.8,2.5-8.5,3.1c-3.7,0.6-7.7,1-11.9,1.1c-1.7,7.4-3.7,13.8-6.1,19.2c-2.3,5.4-5.3,9.9-9.1,13.4
			c1.2,5.8,3.3,9.5,6,11.3c2.8,1.7,5.9,2,9.5,1c3.6-1.1,7.2-3,10.9-5.6c3.7-2.7,7.1-5.5,10.2-8.5c3.1-3,5.6-5.5,7.5-7.5
			c1.6-1.6,2.5-1.6,2.9-0.1c0.4,1.5-0.4,4.4-2.2,8.6c-1.8,3.9-4.3,7.9-7.3,12.1c-3.1,4.1-6.6,7.8-10.5,10.9
			c-3.9,3.2-8.1,5.4-12.4,6.5c-4.4,1.2-8.7,0.8-13-1.2c-4.4-2.2-7.8-5.7-10.1-10.6c-2.3-4.9-3.8-10.3-4.6-16.4
			c-0.7-6.1-0.9-12.1-0.6-18.1c0.3-6,0.9-11.2,1.8-15.8c-3.7,0-7.7-0.3-11.8-0.6c-4.1-0.4-7.8-1.1-10.9-2.2c2.2-1.2,5.4-2.2,9.7-3.1
			C284.8,93.6,289.6,92.9,295.1,92.2z M304.9,121.2c1.6-1.4,3.1-3.6,4.5-6.6c1.4-3,2.7-7.5,3.8-13.3c-1.9,0-3.7-0.1-5.4-0.1
			c-1.2,3.9-2.1,7.8-2.6,11.6C304.7,116.5,304.6,119.4,304.9,121.2z M314.6,90.7c0.3-5.9,0-8.7-0.9-8.4c-1,0.3-2.1,3.2-3.5,8.6
			C311.6,90.9,313.1,90.8,314.6,90.7z"/>
		<path class="st0" d="M415.2,130.9c-0.4,1.1-0.9,2.3-1.5,3.6c-2.5,5.6-5.6,10.3-9.2,14.2c-3.6,3.9-7.2,5.4-10.8,4.5
			c-3.7-1-7.1-4.5-10.2-10.5c-1.2,3.3-2.5,6-3.9,8.2c-1.4,2.2-3.6,4.2-6.5,6.1c-5.8,3.4-10.9,4.5-15.3,3c-4.4-1.4-7.9-4.5-10.4-9.2
			s-4.1-10.1-4.6-16.4c-0.5-6.3,0.4-12.5,2.5-18.8c0.8-2.2,1.9-4,3.4-5.5c1.5-1.5,3.1-2.5,4.7-2.8c1.7-0.3,3.1,0.3,4.2,1.9
			c1.1,1.6,1.7,4.4,1.7,8.5c0,1.4-0.2,3.4-0.4,5.9c-0.3,3.1-0.5,6.4-0.6,10c-0.1,3.5,0,6.6,0.5,9.3c0.5,2.6,1.6,4.2,3.3,4.6
			c3,0.4,5.4-0.7,7.3-3.2c1.9-2.5,3.4-5.9,4.5-10.1c1.1-4.2,2.2-8.6,3-13.1c0.4-1.8,0.7-3.6,1.1-5.4c1-4,2.2-6.5,3.6-7.5
			s2.8-0.9,4.2,0.3c1.4,1.2,2.5,3.1,3.3,5.8c0.8,2.6,1.1,5.6,0.9,8.8c0.3,6.3,1.4,10.7,3.3,13.3c1.9,2.5,4.1,2.9,6.6,1.2
			c2.5-1.7,5.4-5.5,8.8-11.2c3.3-5.7,5.2-9,5.6-9.8c0.7-1.5,2-2.5,4.1-3.1c2-0.5,3.6-0.3,4.6,0.6c1,0.9,1.7,2,2.1,3.2
			c0.3,1,0.6,1.6,0.9,1.8c2.8-6.6,6.5-10.9,11.1-13c4.6-2.1,10.2-1.4,16.9,1.9c3.3,1.8,5.4,4.4,6.4,7.7c1,3.3,1.2,6.4,0.5,9.4
			c-0.7,2.9-2.1,4.8-4.1,5.6c-2.1,0.8-4.6-0.5-7.6-3.9c-0.8-1.1-1.6-2.5-2.2-4.1c-0.5-1.2-1-2.2-1.5-3.1c-0.5-0.9-1.1-1.4-1.9-1.6
			c-2.9-0.4-5.3,0.6-7,3.1c-1.8,2.4-3.2,5.7-4.2,9.8c-1.1,4.1-2,8.4-2.8,12.8c-0.9,5.6-2,10.4-3.3,14.4c-3.1-0.2-5.5-1.4-7.3-3.5
			c-1.8-2.1-2.8-4.6-3-7.6c-0.1-2.4-0.2-4.9-0.2-7.3c0-2.5-0.1-5-0.2-7.6C415.3,131.7,415.2,131.3,415.2,130.9z"/>
		<path class="st0" d="M468.6,92.2c0.7-2.6,1.8-5.7,3.4-9.4c1.6-3.7,3.5-7.1,5.8-10.2c2.3-3.1,4.8-4.9,7.5-5.6
			c2.7-0.6,5.6,0.8,8.6,4.3c1.4,1.8,2.3,4.4,2.6,7.7c0.3,3.3,0.1,7.1-0.4,11.3c5.7-0.2,10.5-0.2,14.2-0.1c3.7,0.1,5.7,0.4,5.9,0.8
			c0.8,2.5,0.2,4.5-1.8,5.9c-2,1.4-4.8,2.5-8.5,3.1c-3.7,0.6-7.7,1-11.9,1.1c-1.7,7.4-3.7,13.8-6.1,19.2c-2.3,5.4-5.3,9.9-9.1,13.4
			c1.2,5.8,3.3,9.5,6,11.3c2.8,1.7,5.9,2,9.5,1c3.6-1.1,7.2-3,10.9-5.6c3.7-2.7,7.1-5.5,10.2-8.5c3.1-3,5.6-5.5,7.5-7.5
			c1.6-1.6,2.5-1.6,2.9-0.1c0.4,1.5-0.4,4.4-2.2,8.6c-1.8,3.9-4.3,7.9-7.3,12.1c-3.1,4.1-6.6,7.8-10.5,10.9
			c-3.9,3.2-8.1,5.4-12.4,6.5c-4.4,1.2-8.7,0.8-13-1.2c-4.4-2.2-7.8-5.7-10.1-10.6c-2.3-4.9-3.8-10.3-4.6-16.4
			c-0.7-6.1-0.9-12.1-0.6-18.1c0.3-6,0.9-11.2,1.8-15.8c-3.7,0-7.7-0.3-11.8-0.6c-4.1-0.4-7.8-1.1-10.9-2.2c2.2-1.2,5.4-2.2,9.7-3.1
			C458.3,93.6,463.2,92.9,468.6,92.2z M478.4,121.2c1.6-1.4,3.1-3.6,4.5-6.6c1.4-3,2.7-7.5,3.8-13.3c-1.9,0-3.7-0.1-5.4-0.1
			c-1.2,3.9-2.1,7.8-2.6,11.6C478.2,116.5,478.1,119.4,478.4,121.2z M488.1,90.7c0.3-5.9,0-8.7-0.9-8.4c-1,0.3-2.1,3.2-3.5,8.6
			C485.1,90.9,486.6,90.8,488.1,90.7z"/>
		<path class="st0" d="M532,161.4c-5.5-2.6-9.5-7-12-13.3c-2.6-6.3-3.9-13.5-4.1-21.5c-0.2-8,0.5-16,2.2-23.8s4-14.6,7-20.2
			c3-5.7,6.5-9.3,10.4-10.8c3.9-1.5,7.9,0,12.1,4.5c3.3,4,5.1,8.4,5.2,13.1c0.1,4.8-0.7,9.6-2.6,14.4c-1.9,4.8-4.1,9.3-6.8,13.4
			c-2.7,4.1-5.1,7.4-7.3,9.9c-2.2,2.6-3.6,3.9-4.2,4.1c0.7,7.1,2.3,11.8,4.9,14.1c2.6,2.2,5.8,2.8,9.4,1.7c3.7-1.1,7.5-3.2,11.3-6.2
			c3.9-3,7.3-6.2,10.5-9.5c3.1-3.3,5.5-6.1,7-8.4c0.8-1.1,1.2-1.1,1.4-0.1c0.2,1,0,2.6-0.5,4.9c-0.5,2.3-1.4,4.7-2.7,7.4
			c-1.8,3.7-4.2,7.4-7,11.2c-2.9,3.8-6.2,7.1-9.8,10.1c-3.7,2.9-7.6,5-11.7,6C540.5,163.5,536.3,163.1,532,161.4z M537.1,87.2
			c-1.2,0.7-2.4,3.1-3.6,7.3c-1.2,4.1-2.1,8.4-2.8,12.8c-0.7,4.4-0.9,7.3-0.7,8.8c1.8-1.7,3.5-4.5,5-8.2c1.5-3.8,2.6-7.6,3.1-11.5
			C538.7,92.5,538.3,89.5,537.1,87.2z"/>
		<path class="st0" d="M581.5,156.1c-3.2-1.5-5.8-3.6-7.9-6.5c-2.1-2.8-3.6-6-4.7-9.6c-1.9-6.7-1.9-12.6,0.1-17.7
			c2-5.1,5.1-9.2,9.3-12.4c4.2-3.2,8.6-5.2,13.2-6.2c4.6-1,8.6-0.6,11.8,1c3.3,1.6,5,4.7,5.1,9.2c0,5.1-1.1,9.2-3.3,12.2
			c-2.2,3-4.8,5.3-7.8,6.7c-3,1.5-6,2.4-8.8,2.9c-2.8,0.5-5,0.7-6.5,0.8c-0.9,0-1.3,0.1-1.3,0.2c0.9,3.6,2.7,5.9,5.4,6.9
			c2.7,1,5.6,1,8.8,0.3c3.2-0.8,6-1.9,8.4-3.5c3.8-2.4,7.3-5.2,10.6-8.1c3.3-3,6-5.5,8-7.5c0.1-0.1,0.3-0.3,0.4-0.4
			c1.6-1.4,2.7-1.6,3.3-0.4c0.6,1.1,0.1,3.7-1.8,7.5c-1.7,3.6-3.8,7.3-6.2,10.9c-2.4,3.7-5.3,6.9-8.7,9.7c-3.4,2.8-7.3,4.6-11.8,5.5
			S587.4,157.9,581.5,156.1z M592.9,125.1c3.3-2.8,4.9-4.8,4.7-6.1c-0.2-1.3-1.4-1.8-3.6-1.6c-2.2,0.3-4.7,1.4-7.4,3.5
			c-2.7,2.1-5,5.2-6.8,9.2c2.3,0.2,4.7-0.3,7.2-1.5C589.5,127.5,591.5,126.3,592.9,125.1z"/>
		<path class="st0" d="M665.6,134.8c-1.1,5.1-3,9.6-5.7,13.7c-2.8,4.1-6.1,7.1-10.1,9.2c-4,2.1-8.3,2.6-13,1.7
			c0.1,5.1,0.1,10.3-0.1,15.4s-0.6,10-1.3,14.6c-0.7,4.6-1.9,8.5-3.7,11.7c-1.7,3.2-4,6.1-6.7,8.7c-2.8,2.6-5.7,4.1-8.9,4.6
			c-3.2,0.5-6.4-0.8-9.5-3.9c-3.3-3.7-4.8-8.3-4.7-13.8c0.1-5.5,1.3-11.2,3.5-17c2.2-5.9,4.9-11.2,8-16.1c3.1-4.9,5.9-8.5,8.5-10.9
			c0.3-3.4,0.3-7-0.1-10.9c-0.4-3.9-1.5-7.4-3.2-10.5c-1.9-3.3-2.5-5.9-1.9-7.9c0.6-2,1.8-3.4,3.6-4.3c1.4-0.8,2.8-1.2,4.3-1.1
			c1.5,0.1,2.8,1.3,4,3.6c2.2-5.7,5-9.7,8.4-12c3.4-2.3,6.9-3.1,10.6-2.6c3.7,0.5,7,2.1,10.1,4.7c3.1,2.6,5.4,5.9,6.9,9.9
			C666.2,125.7,666.5,130.1,665.6,134.8z M617.1,198.8c1.1-0.5,2-2.5,2.7-6c0.6-3.5,1.1-7.4,1.4-11.8c0.3-4.4,0.5-8.3,0.6-11.7
			c0.1-2.2,0.2-3.8,0.3-4.8c-1.6,2.2-3.1,5.5-4.4,10.1c-1.3,4.5-2.1,9.1-2.4,13.8C615.1,192.9,615.7,196.4,617.1,198.8z M635.7,143
			c1.3,3.1,3,4.6,5.1,4.4c2.1-0.2,4.1-1.5,6.1-3.8c2-2.3,3.5-5.2,4.6-8.5c1-3.1,1.3-6,1-8.7c-0.3-2.7-1.3-4.8-2.8-6.2
			c-1.5-1.4-3.5-1.8-6.1-1.1c-3.2,1.2-5.4,3.2-6.7,5.9c-1.2,2.7-1.9,5.6-1.9,8.9C635,137,635.2,140.1,635.7,143z"/>
		<path class="st0" d="M685.8,156.1c-3.2-1.5-5.8-3.6-7.9-6.5c-2-2.8-3.6-6-4.7-9.6c-2-6.7-1.9-12.6,0.1-17.7
			c2-5.1,5.1-9.2,9.3-12.4c4.2-3.2,8.6-5.2,13.2-6.2c4.6-1,8.6-0.6,11.8,1c3.3,1.6,5,4.7,5.2,9.2c-0.1,5.1-1.2,9.2-3.3,12.2
			c-2.1,3-4.7,5.3-7.8,6.7c-3.1,1.5-6,2.4-8.8,2.9c-2.8,0.5-5,0.7-6.5,0.8c-0.9,0-1.4,0.1-1.4,0.2c1,3.6,2.8,5.9,5.4,6.9
			c2.7,1,6.1,0.7,10.4-0.7c4.3-1.4,8.7-4.2,13.2-8.3c4.5-4.1,8.2-8.2,11-12.3c2.8-4.1,4.8-6.6,6-7.4c1.2-0.8,2.4-1.2,3.8-1
			c1.4,0.2,2.3,0.8,2.8,1.9c2.2-4.6,5.4-7.8,9.7-9.7c4.3-1.9,8.8-2.1,13.5-0.7c5.4,1.8,9.3,4.2,11.6,7.3c2.3,3,3.6,6.3,4.1,9.8
			c0.4,3.5,0.5,6.8,0.3,10c-0.2,3.2-0.1,5.8,0.4,7.9c0.4,2.1,1.8,3.4,4,3.7c2.2,0.1,4.6-1.1,7.5-3.7c2.8-2.6,5.5-5.6,7.9-8.9
			c3.8-5.2,6.3-7.6,7.4-7.1c1.1,0.5,0.6,4.1-1.3,11c-1.2,4.2-3.2,8-6.1,11.6c-2.9,3.6-6.2,6.4-10,8.4c-3.8,2-7.7,2.8-11.7,2.3
			c-3.9-0.7-6.8-2.3-8.6-4.7c-1.8-2.4-3-5.4-3.6-8.8c-0.6-3.4-0.9-6.9-1.1-10.4c-0.1-4.3-0.6-8-1.4-11.1c-0.8-3.1-2.7-5-5.5-5.6
			c-2.2-0.3-4.2,0.3-5.8,1.9c-1.6,1.6-3,3.8-4.2,6.5c-1.1,2.8-2.2,5.8-3,9.1c-0.6,2.4-0.9,5.4-1.1,8.8c-0.1,3-0.4,5.8-0.8,8.4
			c-0.4,2.6-1.2,4.4-2.5,5.5c-1.2,1.1-3.2,0.8-5.8-0.7c-1.2-0.7-2.1-1.8-2.7-3.3c-0.6-1.5-0.9-3.6-0.8-6.2c-0.1-3.5-0.1-6.7,0.1-9.7
			c0.1-1.7-0.6-1.5-2,0.6s-4.7,5.7-9.7,10.7c-5,5.1-10.2,8.1-15.4,9C695.3,158.4,690.4,157.9,685.8,156.1z M697.3,125.1
			c3.3-2.8,4.9-4.8,4.7-6.1c-0.2-1.3-1.4-1.8-3.6-1.6c-2.2,0.3-4.6,1.4-7.4,3.5c-2.8,2.1-5,5.2-6.9,9.2c2.3,0.2,4.7-0.3,7.2-1.5
			C693.8,127.5,695.8,126.3,697.3,125.1z"/>
	</g>
	<polygon class="st0" points="31.2,130.1 31.2,130.1 31.9,129.7 	"/>
	<path class="st0" d="M60.3,141.7l-7.4-10.3l-0.3-0.5c0,0,0,0,0,0l-7-9.8l-10.3,7.4l-0.5,0.3c-5.4,3.9-6.7,11.4-2.8,16.9l0.3,0.5
		l0.3,0.5c3.9,5.4,11.4,6.7,16.9,2.8h0l0.5-0.3l0.5-0.3c0,0,0,0,0,0L60.3,141.7z"/>
	<polygon class="st0" points="27.6,73.3 27.6,73.3 28.3,73.7 	"/>
	<path class="st1" d="M62.4,55.7L55,66l-0.3,0.5c0,0,0,0,0,0l-7,9.8l-10.3-7.4l-0.5-0.3c-5.4-3.9-6.7-11.4-2.8-16.9l0.3-0.5l0.3-0.5
		c3.9-5.4,11.4-6.7,16.9-2.8l0,0l0.5,0.3l0.5,0.3c0,0,0,0,0,0L62.4,55.7z"/>
	<path class="st1" d="M166.4,33.4l-9.9-0.1l-0.5,0c0,0,0,0,0,0l-9.4-0.1l0.1-8l0-0.4c0.1-4.2,4.3-7.6,9.6-7.5l0.5,0l0.5,0
		c5.2,0.1,9.4,3.5,9.3,7.7l0,0l0,0.4l0,0.4c0,0,0,0,0,0L166.4,33.4z"/>
	<path class="st0" d="M146.7,165.5l9.9,0.1l0.5,0c0,0,0,0,0,0l9.4,0.1l-0.1,8l0,0.4c-0.1,4.2-4.3,7.6-9.6,7.5l-0.5,0l-0.5,0
		c-5.2-0.1-9.4-3.5-9.3-7.7l0,0l0-0.4l0-0.4c0,0,0,0,0,0L146.7,165.5z"/>
</g>
</svg>
