<?xml version="1.0" encoding="utf-8"?>
<!-- Generator: Adobe Illustrator 22.1.0, SVG Export Plug-In . SVG Version: 6.00 Build 0)  -->
<svg version="1.1" id="Layer_1" xmlns="http://www.w3.org/2000/svg" xmlns:xlink="http://www.w3.org/1999/xlink" x="0px" y="0px"
	 width="427.7px" height="119.7px" viewBox="0 0 427.7 119.7" style="enable-background:new 0 0 427.7 119.7;" xml:space="preserve"
	>
<style type="text/css">
	.st0{fill:#F2F2F2;}
	.st1{enable-background:new    ;}
	.st2{fill:#D3D3D3;}
	.st3{fill:#BFBFBF;}
</style>
<path class="st0" d="M86.9,42.6c-6.5-8.2-15-14.5-24.5-18.1c-1.2-0.4-2.4-0.5-3.6-0.3c-1,0.2-1.9,0.6-2.6,1.2L26,49.6
	c-1.9,1.5-2.9,4-2.5,6.6c0.3,3,2.2,18.5,2.7,29.5c0.1,1.6,0.6,3.1,1.7,4.3c0.9,1.2,2.4,2.2,3.9,2.7c6.8,1.9,16.6,4.9,28.3,9
	c1.3,0.5,2.6,0.6,3.9,0.3c1.2-0.2,2.2-0.7,3.1-1.4l30.3-24.3c1.7-1.4,2.5-3.5,2.1-5.9C97.9,60.5,93.6,50.9,86.9,42.6z M83.5,43.3
	L70.8,53.4l-10.1-4.2l1.7-21.5C70.5,31.1,77.7,36.4,83.5,43.3z M69.8,56.1l1.9,10.9l0,0.4l-8.5,6.8l-10.5-4.3l-2-11.3l0.1-0.1
	l8.4-6.8L69.8,56.1z M28.1,52.1l30.2-24.3c0.4-0.3,0.8-0.5,1.2-0.6c0,0,0,0,0.1,0l-1.7,22l-9.4,7.5L27,53.6
	C27.2,53,27.6,52.5,28.1,52.1z M29.6,86.8c-0.1-0.4-0.2-0.8-0.3-1.2c-0.5-9.4-1.9-22.1-2.7-28.9l0-0.2l21.4,3l1.9,11.1L29.6,86.8z
	 M59.5,98.1c-6.8-2.3-18.1-6.1-26.9-8.5c-0.4-0.1-0.8-0.3-1.1-0.5L52,72.6l9.6,4L60,98.2L59.5,98.1z M95.1,73.7L64.9,98
	c-0.5,0.4-1.2,0.6-1.8,0.7c-0.2,0-0.4,0.1-0.6,0L64.2,77l9.5-7.7L96,72.4C95.9,73,95.6,73.4,95.1,73.7z M74.5,66.6l-1.9-10.9
	l12.7-10.2C90.7,52.7,94.5,61,96,69.6L74.5,66.6z"/>
<g class="st1">
	<path class="st2" d="M-71.6-162.1l-3.9,32.3H-79l3.9-32.3H-79l0.4-3.3h3.9l1.6-12.7h3.5l-1.6,12.7h6.2l-0.4,3.3H-71.6z"/>
	<path class="st2" d="M-52.9-165.4l-2.6,21.5c-0.5,4.1-0.1,7.6,2.2,9.7c1.6,1.4,3.9,2.1,6.1,2.1c3.1,0,5.7-1.1,7.2-2.8
		c1.1-1.2,2.5-3.7,3.1-9l2.6-21.5h3.5l-3,22.4c-0.5,3.7-1,7.5-3.6,10.4c-3.1,3.4-7.3,3.7-10.1,3.7c-2.9,0-6.3-0.5-8.9-3.2
		c-3.6-3.7-3.1-8.8-2.7-11.7l2.6-21.6H-52.9z"/>
	<path class="st2" d="M-16.4-165.4h3.5l-0.5,4.6c0.7-1.3,1.9-2.9,3.4-3.8c1.4-1,3.3-1.6,5.2-1.6c0.5,0,2,0.1,3.5,0.9l-2.1,3.1
		c-0.3-0.3-1.1-0.7-2.5-0.7c-1.7,0-3.6,0.9-4.9,2.3c-2.9,3.1-3.7,8.5-4.2,12.9l-2.3,17.9h-3.5L-16.4-165.4z"/>
	<path class="st2" d="M11.3-162.1l-3.9,32.3H3.9l3.9-32.3H3.9l0.4-3.3h3.9l1.6-12.7h3.5l-1.6,12.7h6.2l-0.4,3.3H11.3z"/>
	<path class="st2" d="M33.6-193.4l-7.8,63.6h-3.5l7.8-63.6H33.6z"/>
	<path class="st2" d="M43.8-147.2c-0.8,4.6,1.1,9.1,3.6,11.5c1.4,1.4,4.2,3.5,9,3.5c2.8,0,6-0.8,8.5-2.5c1.9-1.4,3.7-3.6,4.6-5.6
		l2.7,1.7c-1.5,2.6-3.8,5.4-6.4,7.1c-1.8,1.2-4.9,2.6-9.5,2.6c-4.6,0-8.6-1.2-11.9-4.7c-3.1-3.3-4.4-7.5-4.4-12.1
		c0-6.6,2.4-11.9,5.9-15.3c2.8-2.8,6.9-5.1,12.7-5.1c4.7,0,8.6,1.7,11.2,4.1c4,3.8,4.8,9.4,4.4,14.9H43.8z M70.7-150.5
		c-0.1-3.7-1.7-7.1-3.6-9.1c-1.7-1.7-4.4-3.3-8.5-3.3c-5.1,0-8.5,2.4-10.2,4.3c-1.7,1.8-3.4,4.5-4.1,8.1H70.7z"/>
</g>
<g class="st1">
	<path class="st0" d="M88.6-109.8h-3.5v-55.6h3.5v6.2c3.4-4.6,8.3-7,14-7c10.7,0,17.3,8,17.3,18.3c0,10.5-6.6,19-17.4,19
		c-8.8,0-12.7-5.6-13.8-7.3V-109.8z M116.2-147.9c0-9.8-6.5-15-13.8-15c-7,0-14,5-14,14.8c0,8.9,4.9,15.9,13.9,15.9
		C111.3-132.2,116.2-139.2,116.2-147.9z"/>
	<path class="st0" d="M131.5-147.2c0,9.1,6.6,15,14.1,15c5.8,0,10.1-3.4,12.4-8.1l3,1.7c-2.1,4-6.8,9.7-15.6,9.7
		c-11.1,0-17.5-8.2-17.5-18.6c0-12.4,8.5-18.7,17.3-18.7c9.6,0,16.8,7.7,16.8,19H131.5z M158.3-150.5c-0.9-7.1-6.1-12.4-13.2-12.4
		c-7.2,0-12.4,5.5-13.3,12.4H158.3z"/>
	<path class="st0" d="M172.3-165.4h3.5v5.6c1.7-3,4.9-6.4,10.9-6.4c6.4,0,9.1,3.7,9.9,5c1.6,2.5,1.7,5.8,1.7,9v22.4h-3.5v-22.4
		c0-2.4-0.1-5.1-1.4-7.2c-0.8-1.3-2.7-3.5-7-3.5c-4.9,0-7.4,2.6-8.7,5c-1.6,2.8-1.9,6.1-1.9,9.6v18.5h-3.5V-165.4z"/>
</g>
<path class="st0" d="M98.9,34.4c0.1,0.3,0.2,0.6,0.2,0.9c0,1.7-1.3,3-3,3c-1.7,0-3-1.3-3-3c0-1.7,1.3-3,3-3c0.6,0,1.1,0.2,1.5,0.4
	l17-13.5l-1.5,0l-16.2,0.9L85.5,33l10,12.9l15.9-7.1l4.3-16.4l0.5-1.8L98.9,34.4z"/>
<polygon class="st0" points="126.7,87.3 129.8,61.3 126.7,61.4 127,57.8 130.3,57.7 131.5,47.6 135.2,47.5 134,57.8 138.9,57.7 
	138.5,61.3 133.5,61.4 130.4,87.3 "/>
<path class="st0" d="M154.7,88c-2.1,0-5.1-0.3-7.5-2.7c-3.1-3.2-2.6-7.7-2.3-9.8l2.1-17.7l3.7-0.1l-2.1,17.8
	c-0.5,3.5,0.1,5.9,1.6,7.4c1.1,1,2.8,1.6,4.6,1.6c2.2,0,4.2-0.8,5.5-2.1c1.2-1.3,2-3.6,2.4-6.9l2.1-17.6l3.7-0.1l-2.4,18.6
	c-0.4,3-0.9,6.2-3,8.6C160.6,87.7,157.1,88,154.7,88z"/>
<path class="st0" d="M177.6,87.3l3.5-29.5l3.7-0.1l-0.2,2.4c0.5-0.7,1.2-1.2,1.8-1.6c1.2-0.8,2.9-1.3,4.5-1.3c0.4,0,1.7,0.1,3,0.8
	l0.4,0.2l-2.1,3.3l-0.3-0.2c-0.4-0.2-1-0.5-1.9-0.5c-1.3,0-2.6,0.6-3.6,1.7c-2.1,2.3-2.8,6.4-3.2,10.1l-1.9,14.8H177.6z"/>
<polygon class="st0" points="199.5,87.3 202.6,61.3 199.5,61.4 199.9,57.8 203.1,57.7 204.3,47.6 208,47.5 206.9,57.8 211.7,57.7 
	211.4,61.3 206.3,61.4 203.2,87.3 "/>
<polygon class="st0" points="216.4,87.3 222.7,35.3 226.5,35.3 220.1,87.3 "/>
<path class="st0" d="M246.3,88c-4.3,0-7.4-1.3-9.9-3.9c-2.5-2.6-3.7-6-3.7-10.1c0-5,1.7-9.5,4.9-12.7c2.8-2.8,6.4-4.3,10.6-4.3
	c3.7,0,7,1.2,9.3,3.4c2.9,2.8,4.1,6.8,3.6,12.4l0,0.4l-24.5,0.1c-0.4,3.4,1.1,6.7,2.9,8.4c1.7,1.7,4.1,2.7,6.9,2.7
	c2.4,0,4.8-0.7,6.5-1.9c1.4-1,2.8-2.7,3.6-4.3l0.2-0.4l3,1.8l-0.2,0.4c-1.3,2.4-3.3,4.6-5.2,5.9C252,87.3,249.3,88,246.3,88z
	 M248.2,60.7c-3.9,0-6.4,1.8-7.8,3.3c-1,1.1-2.4,3-3.1,5.8l20.1-0.1c-0.2-2.5-1.2-4.9-2.8-6.5C253.5,62.1,251.5,60.7,248.2,60.7z"/>
<path class="st3" d="M268.5,103.4l5.4-45.6l3.7-0.1l-0.4,3.8c0.9-1,2-1.9,3.3-2.6c2.2-1.2,4.6-1.8,7.4-1.8c5.2,0,8.2,2.3,9.6,3.6
	c2.4,2.5,3.6,5.8,3.6,9.9c0,5.4-1.8,10-5,13.2c-1.9,1.9-5.4,4.3-10.7,4.3c-2.8,0-5.5-0.7-7.6-2.1c-1.4-1-2.5-2.1-3.2-3l-2.4,20.4
	H268.5z M287.6,60.7c-3.2,0-6.1,1.2-8.2,3.3c-2.4,2.4-3.8,6.1-3.8,10.1c0,3.2,1,5.7,3,7.8c1.8,1.7,3.9,2.5,6.7,2.5
	c4.1,0,6.5-1.5,7.9-2.7c2.5-2.3,4-6.2,4-10.6c0-3.3-1-5.9-3-7.8C293.2,62.3,291.1,60.7,287.6,60.7z"/>
<path class="st3" d="M323.6,88c-4.3,0-7.4-1.3-9.9-3.9c-2.5-2.6-3.7-6-3.7-10.1c0-5,1.7-9.5,4.9-12.7c2.8-2.8,6.4-4.3,10.6-4.3
	c3.7,0,7,1.2,9.3,3.4c2.9,2.8,4.1,6.8,3.6,12.4l0,0.4L314,73.3c-0.4,3.4,1.1,6.7,2.9,8.4c1.7,1.7,4.1,2.7,6.9,2.7
	c2.4,0,4.8-0.7,6.5-1.9c1.4-1,2.8-2.7,3.6-4.3l0.2-0.4l3,1.8l-0.2,0.4c-1.3,2.4-3.3,4.6-5.2,5.9C329.3,87.3,326.7,88,323.6,88z
	 M325.5,60.7c-3.9,0-6.4,1.8-7.8,3.3c-1,1.1-2.4,3-3.1,5.8l20.1-0.1c-0.2-2.5-1.2-4.9-2.8-6.5C330.9,62.1,328.9,60.7,325.5,60.7z"/>
<path class="st3" d="M351.2,57.8l3.7-0.1l-0.3,3.1c0.8-1,1.7-1.7,2.3-2.1c1.7-1.1,3.5-1.6,5.9-1.6c3.8,0,5.9,1.5,6.8,2.4
	c1.6,1.6,2.3,3.5,2.3,6c0,1.1-0.2,3.1-0.3,4.3l-0.1,0.8l-2.1,16.7h-3.7l2-17.2l0.1-1.3c0.1-1.2,0.2-1.9,0.2-2.5c0-1.7-0.5-3-1.4-4
	c-0.4-0.5-1.8-1.6-4.5-1.6c-2.3,0-4.1,0.7-5.5,2.1c-1.8,1.8-2.8,4.4-3.4,9.2l-1.9,15.2l-3.7,0.1L351.2,57.8z"/>
</svg>
